# xmcd
#
# Track frame offsets: 
#        150
#        14271
#        26434
#        41324
#        55734
#        70885
#        85909
#        100883
#        116072
#        130781
#        143772
#        158366
#        171909
#        187486
#        199778
#        212614
#
# Disc length: 3013 seconds
#
# Revision: 3
# Processed by: cddbd v1.5.2PL0 Copyright (c) Steve Scherf et al.
# Submitted via: ExactAudioCopy v1.0b3
#
DISCID=d70bc310
DTITLE=Ma Rainey - The Ultimate Jazz Archive - Blues [CD 2)
DYEAR=2005
DGENRE=Blues
TTITLE0=Farewell, Daddy Blues
TTITLE1=Shave 'Em Dry Blues
TTITLE2=Booze And Blues
TTITLE3=Toad Frog Blues
TTITLE4=Jealous Hearted Blues
TTITLE5=See See Rider Blues
TTITLE6=Jelly Bean Blues
TTITLE7=Countin' The blues
TTITLE8=Cell Bound Blues
TTITLE9=Army Camp Harmony Blues
TTITLE10=Explaining The Blues
TTITLE11=Louisiana Hoo Doo Blues
TTITLE12=Goodbye, Daddy Blues
TTITLE13=Stormy Sea Blues
TTITLE14=Rough And Tumble Blues
TTITLE15=Night Time Blues
EXTD=YEAR: 2005
EXTT0=
EXTT1=
EXTT2=
EXTT3=
EXTT4=
EXTT5=
EXTT6=
EXTT7=
EXTT8=
EXTT9=
EXTT10=
EXTT11=
EXTT12=
EXTT13=
EXTT14=
EXTT15=
PLAYORDER=
